<svg width="1620" height="590" viewBox="0 0 1620 590" fill="none" xmlns="http://www.w3.org/2000/svg">
<path d="M0 15L38.5 56C77 97 154 179 231.2 198.5C308.3 218 385.7 175 462.8 125.2C540 75.3 617 18.7 694.2 32.8C771.3 47 848.7 132 925.8 153.2C1003 174.3 1080 131.7 1157.2 113.7C1234.3 95.7 1311.7 102.3 1388.8 87.5C1466 72.7 1543 36.3 1581.5 18.2L1620 0V591H1581.5C1543 591 1466 591 1388.8 591C1311.7 591 1234.3 591 1157.2 591C1080 591 1003 591 925.8 591C848.7 591 771.3 591 694.2 591C617 591 540 591 462.8 591C385.7 591 308.3 591 231.2 591C154 591 77 591 38.5 591H0V15Z" fill="#F1F8FF"/>
<path d="M0 130L38.5 137.5C77 145 154 160 231.2 137.7C308.3 115.3 385.7 55.7 462.8 32C540 8.30001 617 20.7 694.2 68.7C771.3 116.7 848.7 200.3 925.8 224.7C1003 249 1080 214 1157.2 206.8C1234.3 199.7 1311.7 220.3 1388.8 223.3C1466 226.3 1543 211.7 1581.5 204.3L1620 197V591H1581.5C1543 591 1466 591 1388.8 591C1311.7 591 1234.3 591 1157.2 591C1080 591 1003 591 925.8 591C848.7 591 771.3 591 694.2 591C617 591 540 591 462.8 591C385.7 591 308.3 591 231.2 591C154 591 77 591 38.5 591H0V130Z" fill="#E6F3FF"/>
<path d="M0 337L38.5 331.7C77 326.3 154 315.7 231.2 316.3C308.3 317 385.7 329 462.8 320.7C540 312.3 617 283.7 694.2 269C771.3 254.3 848.7 253.7 925.8 264.8C1003 276 1080 299 1157.2 302.3C1234.3 305.7 1311.7 289.3 1388.8 295C1466 300.7 1543 328.3 1581.5 342.2L1620 356V591H1581.5C1543 591 1466 591 1388.8 591C1311.7 591 1234.3 591 1157.2 591C1080 591 1003 591 925.8 591C848.7 591 771.3 591 694.2 591C617 591 540 591 462.8 591C385.7 591 308.3 591 231.2 591C154 591 77 591 38.5 591H0V337Z" fill="#DCEDFF"/>
<path d="M0 250L38.5 231.7C77 213.3 154 176.7 231.2 185.2C308.3 193.7 385.7 247.3 462.8 259.3C540 271.3 617 241.7 694.2 247.2C771.3 252.7 848.7 293.3 925.8 321.2C1003 349 1080 364 1157.2 326.3C1234.3 288.7 1311.7 198.3 1388.8 193C1466 187.7 1543 267.3 1581.5 307.2L1620 347V591H1581.5C1543 591 1466 591 1388.8 591C1311.7 591 1234.3 591 1157.2 591C1080 591 1003 591 925.8 591C848.7 591 771.3 591 694.2 591C617 591 540 591 462.8 591C385.7 591 308.3 591 231.2 591C154 591 77 591 38.5 591H0V250Z" fill="#D1E8FF"/>
<path d="M0 407L38.5 388.2C77 369.3 154 331.7 231.2 329.5C308.3 327.3 385.7 360.7 462.8 350.5C540 340.3 617 286.7 694.2 255C771.3 223.3 848.7 213.7 925.8 230C1003 246.3 1080 288.7 1157.2 313C1234.3 337.3 1311.7 343.7 1388.8 325.8C1466 308 1543 266 1581.5 245L1620 224V591H1581.5C1543 591 1466 591 1388.8 591C1311.7 591 1234.3 591 1157.2 591C1080 591 1003 591 925.8 591C848.7 591 771.3 591 694.2 591C617 591 540 591 462.8 591C385.7 591 308.3 591 231.2 591C154 591 77 591 38.5 591H0V407Z" fill="#C7E2FF"/>
<path d="M0 255L38.5 284.2C77 313.3 154 371.7 231.2 387.7C308.3 403.7 385.7 377.3 462.8 352.5C540 327.7 617 304.3 694.2 298.7C771.3 293 848.7 305 925.8 310.7C1003 316.3 1080 315.7 1157.2 318.5C1234.3 321.3 1311.7 327.7 1388.8 317.3C1466 307 1543 280 1581.5 266.5L1620 253V591H1581.5C1543 591 1466 591 1388.8 591C1311.7 591 1234.3 591 1157.2 591C1080 591 1003 591 925.8 591C848.7 591 771.3 591 694.2 591C617 591 540 591 462.8 591C385.7 591 308.3 591 231.2 591C154 591 77 591 38.5 591H0V255Z" fill="#BCDDFF"/>
<path d="M0 328L38.5 342.3C77 356.7 154 385.3 231.2 391.8C308.3 398.3 385.7 382.7 462.8 390.5C540 398.3 617 429.7 694.2 423.7C771.3 417.7 848.7 374.3 925.8 364C1003 353.7 1080 376.3 1157.2 398.3C1234.3 420.3 1311.7 441.7 1388.8 429.3C1466 417 1543 371 1581.5 348L1620 325V591H1581.5C1543 591 1466 591 1388.8 591C1311.7 591 1234.3 591 1157.2 591C1080 591 1003 591 925.8 591C848.7 591 771.3 591 694.2 591C617 591 540 591 462.8 591C385.7 591 308.3 591 231.2 591C154 591 77 591 38.5 591H0V328Z" fill="#B1D7FF"/>
<path d="M0 466L38.5 450.5C77 435 154 404 231.2 410C308.3 416 385.7 459 462.8 464.7C540 470.3 617 438.7 694.2 411.7C771.3 384.7 848.7 362.3 925.8 362.8C1003 363.3 1080 386.7 1157.2 406.3C1234.3 426 1311.7 442 1388.8 448C1466 454 1543 450 1581.5 448L1620 446V591H1581.5C1543 591 1466 591 1388.8 591C1311.7 591 1234.3 591 1157.2 591C1080 591 1003 591 925.8 591C848.7 591 771.3 591 694.2 591C617 591 540 591 462.8 591C385.7 591 308.3 591 231.2 591C154 591 77 591 38.5 591H0V466Z" fill="#A6D2FF"/>
<path d="M0 513L38.5 512.2C77 511.3 154 509.7 231.2 495.3C308.3 481 385.7 454 462.8 448.5C540 443 617 459 694.2 460.3C771.3 461.7 848.7 448.3 925.8 453.7C1003 459 1080 483 1157.2 490.7C1234.3 498.3 1311.7 489.7 1388.8 475C1466 460.3 1543 439.7 1581.5 429.3L1620 419V591H1581.5C1543 591 1466 591 1388.8 591C1311.7 591 1234.3 591 1157.2 591C1080 591 1003 591 925.8 591C848.7 591 771.3 591 694.2 591C617 591 540 591 462.8 591C385.7 591 308.3 591 231.2 591C154 591 77 591 38.5 591H0V513Z" fill="#9BCCFF"/>
<path d="M0 453L38.5 466.5C77 480 154 507 231.2 518.2C308.3 529.3 385.7 524.7 462.8 518.3C540 512 617 504 694.2 504.8C771.3 505.7 848.7 515.3 925.8 515.8C1003 516.3 1080 507.7 1157.2 513C1234.3 518.3 1311.7 537.7 1388.8 530C1466 522.3 1543 487.7 1581.5 470.3L1620 453V591H1581.5C1543 591 1466 591 1388.8 591C1311.7 591 1234.3 591 1157.2 591C1080 591 1003 591 925.8 591C848.7 591 771.3 591 694.2 591C617 591 540 591 462.8 591C385.7 591 308.3 591 231.2 591C154 591 77 591 38.5 591H0V453Z" fill="#90C7FF"/>
<path d="M0 562L38.5 565.3C77 568.7 154 575.3 231.2 577C308.3 578.7 385.7 575.3 462.8 561.3C540 547.3 617 522.7 694.2 518.2C771.3 513.7 848.7 529.3 925.8 539.5C1003 549.7 1080 554.3 1157.2 548.8C1234.3 543.3 1311.7 527.7 1388.8 517.3C1466 507 1543 502 1581.5 499.5L1620 497V591H1581.5C1543 591 1466 591 1388.8 591C1311.7 591 1234.3 591 1157.2 591C1080 591 1003 591 925.8 591C848.7 591 771.3 591 694.2 591C617 591 540 591 462.8 591C385.7 591 308.3 591 231.2 591C154 591 77 591 38.5 591H0V562Z" fill="#84C1FF"/>
</svg>
