<svg width="1620" height="1080" viewBox="0 0 1620 1080" fill="none" xmlns="http://www.w3.org/2000/svg">
<path d="M0 304L38.5 340.5C77 377 154 450 231.2 473C308.3 496 385.7 469 462.8 437.7C540 406.3 617 370.7 694.2 382.2C771.3 393.7 848.7 452.3 925.8 466.3C1003 480.3 1080 449.7 1157.2 428.5C1234.3 407.3 1311.7 395.7 1388.8 407.2C1466 418.7 1543 453.3 1581.5 470.7L1620 488V0H1581.5C1543 0 1466 0 1388.8 0C1311.7 0 1234.3 0 1157.2 0C1080 0 1003 0 925.8 0C848.7 0 771.3 0 694.2 0C617 0 540 0 462.8 0C385.7 0 308.3 0 231.2 0C154 0 77 0 38.5 0H0V304Z" fill="#F1F8FF"/>
<path d="M0 560L38.5 520C77 480 154 400 231.2 398.3C308.3 396.7 385.7 473.3 462.8 470C540 466.7 617 383.3 694.2 379C771.3 374.7 848.7 449.3 925.8 487.7C1003 526 1080 528 1157.2 509C1234.3 490 1311.7 450 1388.8 443.8C1466 437.7 1543 465.3 1581.5 479.2L1620 493V0H1581.5C1543 0 1466 0 1388.8 0C1311.7 0 1234.3 0 1157.2 0C1080 0 1003 0 925.8 0C848.7 0 771.3 0 694.2 0C617 0 540 0 462.8 0C385.7 0 308.3 0 231.2 0C154 0 77 0 38.5 0H0V560Z" fill="#EBF2FF"/>
<path d="M0 366L38.5 359.5C77 353 154 340 231.2 322C308.3 304 385.7 281 462.8 263C540 245 617 232 694.2 245.8C771.3 259.7 848.7 300.3 925.8 349.5C1003 398.7 1080 456.3 1157.2 445.2C1234.3 434 1311.7 354 1388.8 357.2C1466 360.3 1543 446.7 1581.5 489.8L1620 533V0H1581.5C1543 0 1466 0 1388.8 0C1311.7 0 1234.3 0 1157.2 0C1080 0 1003 0 925.8 0C848.7 0 771.3 0 694.2 0C617 0 540 0 462.8 0C385.7 0 308.3 0 231.2 0C154 0 77 0 38.5 0H0V366Z" fill="#EAEBFF"/>
<path d="M0 469L38.5 452C77 435 154 401 231.2 403.3C308.3 405.7 385.7 444.3 462.8 441.2C540 438 617 393 694.2 345.2C771.3 297.3 848.7 246.7 925.8 238C1003 229.3 1080 262.7 1157.2 280.7C1234.3 298.7 1311.7 301.3 1388.8 289.8C1466 278.3 1543 252.7 1581.5 239.8L1620 227V0H1581.5C1543 0 1466 0 1388.8 0C1311.7 0 1234.3 0 1157.2 0C1080 0 1003 0 925.8 0C848.7 0 771.3 0 694.2 0C617 0 540 0 462.8 0C385.7 0 308.3 0 231.2 0C154 0 77 0 38.5 0H0V469Z" fill="#EDE3FF"/>
<path d="M0 285L38.5 269.2C77 253.3 154 221.7 231.2 207.3C308.3 193 385.7 196 462.8 235.2C540 274.3 617 349.7 694.2 359C771.3 368.3 848.7 311.7 925.8 310.5C1003 309.3 1080 363.7 1157.2 363.2C1234.3 362.7 1311.7 307.3 1388.8 289.2C1466 271 1543 290 1581.5 299.5L1620 309V0H1581.5C1543 0 1466 0 1388.8 0C1311.7 0 1234.3 0 1157.2 0C1080 0 1003 0 925.8 0C848.7 0 771.3 0 694.2 0C617 0 540 0 462.8 0C385.7 0 308.3 0 231.2 0C154 0 77 0 38.5 0H0V285Z" fill="#F5DAFA"/>
<path d="M0 274L38.5 286C77 298 154 322 231.2 325C308.3 328 385.7 310 462.8 288.2C540 266.3 617 240.7 694.2 224.5C771.3 208.3 848.7 201.7 925.8 198.8C1003 196 1080 197 1157.2 195.3C1234.3 193.7 1311.7 189.3 1388.8 207.8C1466 226.3 1543 267.7 1581.5 288.3L1620 309V0H1581.5C1543 0 1466 0 1388.8 0C1311.7 0 1234.3 0 1157.2 0C1080 0 1003 0 925.8 0C848.7 0 771.3 0 694.2 0C617 0 540 0 462.8 0C385.7 0 308.3 0 231.2 0C154 0 77 0 38.5 0H0V274Z" fill="#FED0EF"/>
<path d="M0 311L38.5 294.5C77 278 154 245 231.2 231C308.3 217 385.7 222 462.8 229.5C540 237 617 247 694.2 261C771.3 275 848.7 293 925.8 296.8C1003 300.7 1080 290.3 1157.2 280C1234.3 269.7 1311.7 259.3 1388.8 265C1466 270.7 1543 292.3 1581.5 303.2L1620 314V0H1581.5C1543 0 1466 0 1388.8 0C1311.7 0 1234.3 0 1157.2 0C1080 0 1003 0 925.8 0C848.7 0 771.3 0 694.2 0C617 0 540 0 462.8 0C385.7 0 308.3 0 231.2 0C154 0 77 0 38.5 0H0V311Z" fill="#FFC6DF"/>
<path d="M0 206L38.5 193.3C77 180.7 154 155.3 231.2 142.7C308.3 130 385.7 130 462.8 130.5C540 131 617 132 694.2 154.7C771.3 177.3 848.7 221.7 925.8 229.3C1003 237 1080 208 1157.2 206.8C1234.3 205.7 1311.7 232.3 1388.8 219C1466 205.7 1543 152.3 1581.5 125.7L1620 99V0H1581.5C1543 0 1466 0 1388.8 0C1311.7 0 1234.3 0 1157.2 0C1080 0 1003 0 925.8 0C848.7 0 771.3 0 694.2 0C617 0 540 0 462.8 0C385.7 0 308.3 0 231.2 0C154 0 77 0 38.5 0H0V206Z" fill="#FFBECB"/>
<path d="M0 88L38.5 86.5C77 85 154 82 231.2 99.2C308.3 116.3 385.7 153.7 462.8 152C540 150.3 617 109.7 694.2 94.8C771.3 80 848.7 91 925.8 113.5C1003 136 1080 170 1157.2 180.5C1234.3 191 1311.7 178 1388.8 162C1466 146 1543 127 1581.5 117.5L1620 108V0H1581.5C1543 0 1466 0 1388.8 0C1311.7 0 1234.3 0 1157.2 0C1080 0 1003 0 925.8 0C848.7 0 771.3 0 694.2 0C617 0 540 0 462.8 0C385.7 0 308.3 0 231.2 0C154 0 77 0 38.5 0H0V88Z" fill="#FFB8B4"/>
<path d="M0 29L38.5 45.2C77 61.3 154 93.7 231.2 109.5C308.3 125.3 385.7 124.7 462.8 118.7C540 112.7 617 101.3 694.2 86.8C771.3 72.3 848.7 54.7 925.8 61C1003 67.3 1080 97.7 1157.2 98.3C1234.3 99 1311.7 70 1388.8 57.8C1466 45.7 1543 50.3 1581.5 52.7L1620 55V0H1581.5C1543 0 1466 0 1388.8 0C1311.7 0 1234.3 0 1157.2 0C1080 0 1003 0 925.8 0C848.7 0 771.3 0 694.2 0C617 0 540 0 462.8 0C385.7 0 308.3 0 231.2 0C154 0 77 0 38.5 0H0V29Z" fill="#FFB49C"/>
<path d="M0 74L38.5 65.7C77 57.3 154 40.7 231.2 45C308.3 49.3 385.7 74.7 462.8 76.7C540 78.7 617 57.3 694.2 43.8C771.3 30.3 848.7 24.7 925.8 19.2C1003 13.7 1080 8.3 1157.2 22.3C1234.3 36.3 1311.7 69.7 1388.8 81.7C1466 93.7 1543 84.3 1581.5 79.7L1620 75V0H1581.5C1543 0 1466 0 1388.8 0C1311.7 0 1234.3 0 1157.2 0C1080 0 1003 0 925.8 0C848.7 0 771.3 0 694.2 0C617 0 540 0 462.8 0C385.7 0 308.3 0 231.2 0C154 0 77 0 38.5 0H0V74Z" fill="#FFB384"/>
</svg>
